<svg width="575" height="155" viewBox="0 0 575 155" fill="none" xmlns="http://www.w3.org/2000/svg">
<rect width="575" height="155" rx="37" fill="#FF4D4C"/>
<path d="M66.075 83.83C61.8144 83.83 57.8857 83.1107 54.289 81.672C50.7477 80.178 47.649 78.103 44.993 75.447C42.3923 72.7357 40.3727 69.554 38.934 65.902C37.4953 62.1947 36.776 58.1553 36.776 53.784C36.776 49.5233 37.523 45.5947 39.017 41.998C40.511 38.346 42.6137 35.192 45.325 32.536C48.0363 29.8247 51.218 27.722 54.87 26.228C58.522 24.734 62.4784 23.987 66.739 23.987C69.5057 23.987 72.217 24.3743 74.873 25.149C77.5844 25.8683 80.0467 26.9473 82.26 28.386C84.5287 29.8247 86.4654 31.54 88.07 33.532L80.268 42.164C78.94 40.836 77.5567 39.7017 76.118 38.761C74.7347 37.765 73.2407 37.018 71.636 36.52C70.0867 35.9667 68.4267 35.69 66.656 35.69C64.2767 35.69 62.0357 36.1327 59.933 37.018C57.8857 37.9033 56.0873 39.1483 54.538 40.753C52.9887 42.3023 51.7437 44.2113 50.803 46.48C49.9177 48.6933 49.475 51.1557 49.475 53.867C49.475 56.6337 49.9177 59.1513 50.803 61.42C51.6883 63.6333 52.9333 65.5423 54.538 67.147C56.1427 68.6963 58.0517 69.9137 60.265 70.799C62.5337 71.629 65.0237 72.044 67.735 72.044C69.5057 72.044 71.221 71.795 72.881 71.297C74.541 70.799 76.0627 70.1073 77.446 69.222C78.8847 68.3367 80.1574 67.313 81.264 66.151L87.323 75.862C85.995 77.356 84.1967 78.7117 81.928 79.929C79.7147 81.1463 77.2247 82.1147 74.458 82.834C71.6914 83.498 68.897 83.83 66.075 83.83ZM96.2416 83V21.58H108.028V83H96.2416ZM139.596 83.83C135.114 83.83 131.102 82.8617 127.561 80.925C124.075 78.933 121.308 76.2217 119.261 72.791C117.269 69.3603 116.273 65.4317 116.273 61.005C116.273 56.5783 117.269 52.6773 119.261 49.302C121.308 45.8713 124.075 43.16 127.561 41.168C131.102 39.176 135.114 38.18 139.596 38.18C144.023 38.18 147.979 39.176 151.465 41.168C155.006 43.16 157.773 45.8713 159.765 49.302C161.757 52.6773 162.753 56.5783 162.753 61.005C162.753 65.4317 161.757 69.3603 159.765 72.791C157.773 76.2217 155.006 78.933 151.465 80.925C147.979 82.8617 144.023 83.83 139.596 83.83ZM139.596 73.538C141.754 73.538 143.691 73.0123 145.406 71.961C147.121 70.8543 148.449 69.3603 149.39 67.479C150.386 65.5423 150.884 63.3843 150.884 61.005C150.884 58.5703 150.386 56.4123 149.39 54.531C148.449 52.5943 147.121 51.1003 145.406 50.049C143.691 48.9423 141.754 48.389 139.596 48.389C137.383 48.389 135.418 48.9423 133.703 50.049C131.988 51.1557 130.632 52.6497 129.636 54.531C128.64 56.4123 128.17 58.5703 128.225 61.005C128.17 63.3843 128.64 65.5423 129.636 67.479C130.632 69.3603 131.988 70.8543 133.703 71.961C135.418 73.0123 137.383 73.538 139.596 73.538ZM186.727 83.83C183.517 83.83 180.751 83.1383 178.427 81.755C176.158 80.3163 174.387 78.2967 173.115 75.696C171.897 73.04 171.289 69.8583 171.289 66.151V39.093H183.075V64.242C183.075 66.234 183.407 67.977 184.071 69.471C184.735 70.9097 185.675 72.0163 186.893 72.791C188.11 73.5657 189.604 73.953 191.375 73.953C192.647 73.953 193.837 73.7593 194.944 73.372C196.05 72.9293 196.991 72.3207 197.766 71.546C198.54 70.7713 199.149 69.8583 199.592 68.807C200.034 67.7557 200.256 66.6213 200.256 65.404V39.093H212.042V83H200.837L200.422 73.953L202.58 72.957C201.916 75.0043 200.809 76.858 199.26 78.518C197.71 80.178 195.857 81.4783 193.699 82.419C191.541 83.3597 189.217 83.83 186.727 83.83ZM241.082 83.83C237.264 83.83 233.833 82.8617 230.79 80.925C227.746 78.933 225.339 76.2493 223.569 72.874C221.853 69.4433 220.996 65.487 220.996 61.005C220.996 56.6337 221.853 52.7327 223.569 49.302C225.339 45.8713 227.719 43.16 230.707 41.168C233.75 39.176 237.208 38.18 241.082 38.18C243.129 38.18 245.093 38.512 246.975 39.176C248.911 39.7847 250.627 40.6423 252.121 41.749C253.67 42.8557 254.915 44.1007 255.856 45.484C256.796 46.812 257.322 48.223 257.433 49.717L254.445 50.215V21.58H266.231V83H255.109L254.611 72.874L256.935 73.123C256.824 74.5063 256.326 75.8343 255.441 77.107C254.555 78.3797 253.366 79.5417 251.872 80.593C250.433 81.589 248.773 82.3913 246.892 83C245.066 83.5533 243.129 83.83 241.082 83.83ZM243.738 74.036C245.951 74.036 247.888 73.4827 249.548 72.376C251.208 71.2693 252.508 69.7477 253.449 67.811C254.389 65.8743 254.86 63.6057 254.86 61.005C254.86 58.4597 254.389 56.2187 253.449 54.282C252.508 52.29 251.208 50.7683 249.548 49.717C247.888 48.6103 245.951 48.057 243.738 48.057C241.524 48.057 239.588 48.6103 237.928 49.717C236.323 50.7683 235.05 52.29 234.11 54.282C233.224 56.2187 232.782 58.4597 232.782 61.005C232.782 63.6057 233.224 65.8743 234.11 67.811C235.05 69.7477 236.323 71.2693 237.928 72.376C239.588 73.4827 241.524 74.036 243.738 74.036ZM279.381 83V24.9H291.831V71.795H318.142V83H279.381ZM329.052 83V39.093H340.838V83H329.052ZM334.862 30.046C332.593 30.046 330.823 29.4927 329.55 28.386C328.277 27.2793 327.641 25.7023 327.641 23.655C327.641 21.7737 328.277 20.252 329.55 19.09C330.878 17.8727 332.649 17.264 334.862 17.264C337.131 17.264 338.901 17.845 340.174 19.007C341.447 20.1137 342.083 21.663 342.083 23.655C342.083 25.5917 341.419 27.141 340.091 28.303C338.818 29.465 337.075 30.046 334.862 30.046ZM353.426 83V39.093H364.714L365.046 48.057L362.722 49.053C363.331 47.061 364.41 45.2627 365.959 43.658C367.564 41.998 369.473 40.67 371.686 39.674C373.9 38.678 376.224 38.18 378.658 38.18C381.978 38.18 384.745 38.844 386.958 40.172C389.227 41.5 390.915 43.5197 392.021 46.231C393.183 48.887 393.764 52.1793 393.764 56.108V83H381.978V57.021C381.978 55.029 381.702 53.369 381.148 52.041C380.595 50.713 379.737 49.7447 378.575 49.136C377.469 48.472 376.085 48.1953 374.425 48.306C373.097 48.306 371.852 48.5273 370.69 48.97C369.584 49.3573 368.615 49.9383 367.785 50.713C367.011 51.4877 366.374 52.373 365.876 53.369C365.434 54.365 365.212 55.444 365.212 56.606V83H359.402C358.13 83 356.995 83 355.999 83C355.003 83 354.146 83 353.426 83ZM416.263 69.803L412.777 60.092L433.527 39.093H449.048L416.263 69.803ZM405.058 83V21.58H416.844V83H405.058ZM434.772 83L419.002 63.163L427.302 56.523L448.965 83H434.772ZM478.85 83V72.376H493.873L490.802 75.032C488.091 72.4313 485.712 69.6923 483.664 66.815C481.672 63.9377 480.095 61.005 478.933 58.017C477.827 54.9737 477.273 51.9027 477.273 48.804C477.273 45.2073 477.937 41.8873 479.265 38.844C480.649 35.8007 482.585 33.1447 485.075 30.876C487.565 28.6073 490.443 26.8643 493.707 25.647C497.027 24.3743 500.624 23.738 504.497 23.738C508.426 23.738 512.023 24.3743 515.287 25.647C518.607 26.8643 521.485 28.6073 523.919 30.876C526.409 33.1447 528.318 35.8283 529.646 38.927C531.03 41.9703 531.721 45.2903 531.721 48.887C531.721 51.9303 531.14 54.9737 529.978 58.017C528.872 61.005 527.322 63.9377 525.33 66.815C523.338 69.6923 520.987 72.4037 518.275 74.949L515.453 72.376H530.144V83H508.315V72.874C509.422 71.6567 510.446 70.5223 511.386 69.471C512.327 68.4197 513.157 67.479 513.876 66.649C514.596 65.7637 515.149 64.989 515.536 64.325C516.477 62.8863 517.279 61.4477 517.943 60.009C518.663 58.515 519.188 56.938 519.52 55.278C519.908 53.618 520.101 51.8197 520.101 49.883C520.101 47.7803 519.714 45.8437 518.939 44.073C518.165 42.247 517.058 40.67 515.619 39.342C514.236 38.014 512.604 36.9903 510.722 36.271C508.841 35.4963 506.766 35.109 504.497 35.109C502.284 35.109 500.237 35.4687 498.355 36.188C496.474 36.9073 494.814 37.9587 493.375 39.342C491.992 40.67 490.913 42.247 490.138 44.073C489.364 45.8437 488.976 47.7803 488.976 49.883C488.976 52.2623 489.253 54.448 489.806 56.44C490.36 58.3767 491.134 60.2027 492.13 61.918C493.126 63.578 494.261 65.238 495.533 66.898C496.087 67.6727 496.585 68.3643 497.027 68.973C497.525 69.5817 497.996 70.135 498.438 70.633C498.936 71.131 499.351 71.5737 499.683 71.961C500.015 72.3483 500.32 72.6527 500.596 72.874V83H478.85Z" fill="white"/>
<path d="M54.6627 137.258C52.2261 137.258 50.0474 136.756 48.1267 135.753C46.2347 134.721 44.7441 133.316 43.6547 131.539C42.5654 129.733 42.0207 127.698 42.0207 125.433V106.857H48.5137V125.046C48.5137 126.25 48.7861 127.339 49.3307 128.314C49.8754 129.26 50.6064 130.02 51.5237 130.593C52.4697 131.166 53.5161 131.453 54.6627 131.453C55.8381 131.453 56.8987 131.166 57.8447 130.593C58.8194 130.02 59.5791 129.26 60.1237 128.314C60.6971 127.339 60.9837 126.25 60.9837 125.046V106.857H67.2617V125.433C67.2617 127.698 66.7171 129.733 65.6277 131.539C64.5384 133.316 63.0334 134.721 61.1127 135.753C59.2207 136.756 57.0707 137.258 54.6627 137.258ZM73.9627 137V114.253H79.8107L79.9827 118.897L78.7787 119.413C79.094 118.381 79.653 117.449 80.4557 116.618C81.287 115.758 82.276 115.07 83.4227 114.554C84.5693 114.038 85.7733 113.78 87.0347 113.78C88.7547 113.78 90.188 114.124 91.3347 114.812C92.51 115.5 93.3843 116.546 93.9577 117.951C94.5597 119.327 94.8607 121.033 94.8607 123.068V137H88.7547V123.541C88.7547 122.509 88.6113 121.649 88.3247 120.961C88.038 120.273 87.5937 119.771 86.9917 119.456C86.4183 119.112 85.7017 118.969 84.8417 119.026C84.1537 119.026 83.5087 119.141 82.9067 119.37C82.3333 119.571 81.8317 119.872 81.4017 120.273C81.0003 120.674 80.6707 121.133 80.4127 121.649C80.1833 122.165 80.0687 122.724 80.0687 123.326V137H77.0587C76.3993 137 75.8117 137 75.2957 137C74.7797 137 74.3353 137 73.9627 137ZM100.755 137V105.18H106.861V137H100.755ZM123.43 137.43C120.965 137.43 118.815 136.928 116.98 135.925C115.146 134.922 113.712 133.546 112.68 131.797C111.648 130.048 111.132 128.042 111.132 125.777C111.132 124.028 111.419 122.423 111.992 120.961C112.566 119.499 113.368 118.238 114.4 117.177C115.432 116.088 116.651 115.256 118.055 114.683C119.489 114.081 121.037 113.78 122.699 113.78C124.247 113.78 125.681 114.067 126.999 114.64C128.318 115.185 129.45 115.973 130.396 117.005C131.371 118.008 132.116 119.198 132.632 120.574C133.148 121.95 133.378 123.455 133.32 125.089L133.277 126.981H115.002L114.013 123.24H128.246L127.558 124.014V123.068C127.501 122.294 127.243 121.592 126.784 120.961C126.354 120.33 125.795 119.843 125.107 119.499C124.419 119.155 123.645 118.983 122.785 118.983C121.524 118.983 120.449 119.227 119.56 119.714C118.7 120.201 118.041 120.918 117.582 121.864C117.124 122.81 116.894 123.957 116.894 125.304C116.894 126.68 117.181 127.87 117.754 128.873C118.356 129.876 119.188 130.665 120.248 131.238C121.338 131.783 122.613 132.055 124.075 132.055C125.079 132.055 125.996 131.897 126.827 131.582C127.659 131.267 128.547 130.722 129.493 129.948L132.417 134.033C131.586 134.778 130.669 135.409 129.665 135.925C128.662 136.412 127.63 136.785 126.569 137.043C125.509 137.301 124.462 137.43 123.43 137.43ZM146.347 137.43C144.455 137.43 142.749 136.914 141.23 135.882C139.71 134.85 138.506 133.445 137.618 131.668C136.729 129.891 136.285 127.855 136.285 125.562C136.285 123.269 136.729 121.248 137.618 119.499C138.535 117.722 139.768 116.331 141.316 115.328C142.864 114.296 144.627 113.78 146.605 113.78C147.723 113.78 148.74 113.952 149.658 114.296C150.604 114.611 151.421 115.056 152.109 115.629C152.825 116.202 153.427 116.862 153.915 117.607C154.402 118.352 154.746 119.155 154.947 120.015L153.657 119.8V114.253H159.72V137H153.571V131.539L154.947 131.41C154.717 132.213 154.345 132.972 153.829 133.689C153.313 134.406 152.668 135.051 151.894 135.624C151.148 136.169 150.303 136.613 149.357 136.957C148.411 137.272 147.407 137.43 146.347 137.43ZM148.024 132.141C149.17 132.141 150.174 131.869 151.034 131.324C151.894 130.779 152.553 130.02 153.012 129.045C153.499 128.042 153.743 126.881 153.743 125.562C153.743 124.272 153.499 123.14 153.012 122.165C152.553 121.19 151.894 120.431 151.034 119.886C150.174 119.313 149.17 119.026 148.024 119.026C146.906 119.026 145.917 119.313 145.057 119.886C144.225 120.431 143.566 121.19 143.079 122.165C142.591 123.14 142.348 124.272 142.348 125.562C142.348 126.881 142.591 128.042 143.079 129.045C143.566 130.02 144.225 130.779 145.057 131.324C145.917 131.869 146.906 132.141 148.024 132.141ZM173.496 137.43C171.374 137.43 169.482 137.086 167.82 136.398C166.186 135.681 164.867 134.707 163.864 133.474L167.648 130.206C168.536 131.152 169.525 131.84 170.615 132.27C171.704 132.671 172.793 132.872 173.883 132.872C174.313 132.872 174.7 132.829 175.044 132.743C175.416 132.628 175.732 132.485 175.99 132.313C176.248 132.112 176.434 131.883 176.549 131.625C176.692 131.338 176.764 131.037 176.764 130.722C176.764 130.091 176.506 129.59 175.99 129.217C175.703 129.074 175.259 128.902 174.657 128.701C174.055 128.472 173.281 128.228 172.335 127.97C170.873 127.597 169.626 127.167 168.594 126.68C167.59 126.164 166.788 125.591 166.186 124.96C165.67 124.358 165.268 123.713 164.982 123.025C164.724 122.308 164.595 121.52 164.595 120.66C164.595 119.628 164.824 118.696 165.283 117.865C165.741 117.005 166.372 116.274 167.175 115.672C168.006 115.07 168.952 114.611 170.013 114.296C171.073 113.952 172.191 113.78 173.367 113.78C174.542 113.78 175.689 113.923 176.807 114.21C177.925 114.497 178.957 114.912 179.903 115.457C180.877 115.973 181.723 116.589 182.44 117.306L179.172 120.918C178.656 120.431 178.068 119.986 177.409 119.585C176.778 119.184 176.119 118.868 175.431 118.639C174.743 118.41 174.126 118.295 173.582 118.295C173.094 118.295 172.65 118.338 172.249 118.424C171.876 118.51 171.561 118.639 171.303 118.811C171.045 118.983 170.844 119.212 170.701 119.499C170.586 119.757 170.529 120.044 170.529 120.359C170.529 120.674 170.6 120.975 170.744 121.262C170.916 121.549 171.145 121.792 171.432 121.993C171.747 122.165 172.206 122.366 172.808 122.595C173.438 122.824 174.284 123.082 175.345 123.369C176.721 123.742 177.882 124.157 178.828 124.616C179.802 125.075 180.576 125.605 181.15 126.207C181.637 126.723 181.995 127.311 182.225 127.97C182.454 128.629 182.569 129.36 182.569 130.163C182.569 131.568 182.167 132.829 181.365 133.947C180.591 135.036 179.516 135.896 178.14 136.527C176.764 137.129 175.216 137.43 173.496 137.43ZM186.922 137V105.18H192.942V118.897L191.738 119.413C192.053 118.381 192.612 117.449 193.415 116.618C194.246 115.758 195.235 115.07 196.382 114.554C197.528 114.038 198.732 113.78 199.994 113.78C201.714 113.78 203.147 114.124 204.294 114.812C205.469 115.5 206.343 116.546 206.917 117.951C207.519 119.327 207.82 121.033 207.82 123.068V137H201.714V123.541C201.714 122.509 201.57 121.649 201.284 120.961C200.997 120.273 200.553 119.771 199.951 119.456C199.377 119.112 198.661 118.969 197.801 119.026C197.113 119.026 196.468 119.141 195.866 119.37C195.292 119.571 194.791 119.872 194.361 120.273C193.959 120.674 193.63 121.133 193.372 121.649C193.142 122.165 193.028 122.724 193.028 123.326V137H190.018C189.358 137 188.771 137 188.255 137C187.739 137 187.294 137 186.922 137ZM230.038 146.89L235.026 135.194L235.112 138.72L224.018 114.253H230.941L236.488 127.368C236.718 127.855 236.933 128.429 237.133 129.088C237.363 129.719 237.549 130.335 237.692 130.937L236.66 131.367C236.832 130.88 237.033 130.321 237.262 129.69C237.492 129.059 237.721 128.386 237.95 127.669L242.723 114.253H249.689L240.143 137L236.23 146.89H230.038ZM263.133 137.43C260.811 137.43 258.733 136.928 256.898 135.925C255.092 134.893 253.659 133.488 252.598 131.711C251.566 129.934 251.05 127.898 251.05 125.605C251.05 123.312 251.566 121.291 252.598 119.542C253.659 117.765 255.092 116.36 256.898 115.328C258.733 114.296 260.811 113.78 263.133 113.78C265.427 113.78 267.476 114.296 269.282 115.328C271.117 116.36 272.55 117.765 273.582 119.542C274.614 121.291 275.13 123.312 275.13 125.605C275.13 127.898 274.614 129.934 273.582 131.711C272.55 133.488 271.117 134.893 269.282 135.925C267.476 136.928 265.427 137.43 263.133 137.43ZM263.133 132.098C264.251 132.098 265.255 131.826 266.143 131.281C267.032 130.708 267.72 129.934 268.207 128.959C268.723 127.956 268.981 126.838 268.981 125.605C268.981 124.344 268.723 123.226 268.207 122.251C267.72 121.248 267.032 120.474 266.143 119.929C265.255 119.356 264.251 119.069 263.133 119.069C261.987 119.069 260.969 119.356 260.08 119.929C259.192 120.502 258.489 121.276 257.973 122.251C257.457 123.226 257.214 124.344 257.242 125.605C257.214 126.838 257.457 127.956 257.973 128.959C258.489 129.934 259.192 130.708 260.08 131.281C260.969 131.826 261.987 132.098 263.133 132.098ZM287.55 137.43C285.888 137.43 284.454 137.072 283.25 136.355C282.075 135.61 281.158 134.563 280.498 133.216C279.868 131.84 279.552 130.192 279.552 128.271V114.253H285.658V127.282C285.658 128.314 285.83 129.217 286.174 129.991C286.518 130.736 287.006 131.31 287.636 131.711C288.267 132.112 289.041 132.313 289.958 132.313C290.618 132.313 291.234 132.213 291.807 132.012C292.381 131.783 292.868 131.467 293.269 131.066C293.671 130.665 293.986 130.192 294.215 129.647C294.445 129.102 294.559 128.515 294.559 127.884V114.253H300.665V137H294.86L294.645 132.313L295.763 131.797C295.419 132.858 294.846 133.818 294.043 134.678C293.241 135.538 292.28 136.212 291.162 136.699C290.044 137.186 288.84 137.43 287.55 137.43ZM306.809 137V114.253H312.7L312.915 121.563L311.883 120.058C312.227 118.883 312.786 117.822 313.56 116.876C314.334 115.901 315.237 115.142 316.269 114.597C317.33 114.052 318.434 113.78 319.58 113.78C320.068 113.78 320.541 113.823 320.999 113.909C321.458 113.995 321.845 114.095 322.16 114.21L320.526 120.918C320.182 120.746 319.767 120.603 319.279 120.488C318.792 120.345 318.29 120.273 317.774 120.273C317.086 120.273 316.441 120.402 315.839 120.66C315.266 120.889 314.764 121.233 314.334 121.692C313.904 122.122 313.56 122.638 313.302 123.24C313.073 123.842 312.958 124.501 312.958 125.218V137H306.809ZM338.849 146.46V114.253H344.74L344.912 119.37L343.794 118.983C343.995 118.066 344.482 117.22 345.256 116.446C346.059 115.672 347.048 115.041 348.223 114.554C349.399 114.067 350.631 113.823 351.921 113.823C353.899 113.823 355.648 114.339 357.167 115.371C358.715 116.374 359.934 117.765 360.822 119.542C361.74 121.291 362.198 123.312 362.198 125.605C362.198 127.87 361.754 129.891 360.865 131.668C359.977 133.445 358.758 134.85 357.21 135.882C355.662 136.885 353.899 137.387 351.921 137.387C350.603 137.387 349.341 137.143 348.137 136.656C346.962 136.14 345.959 135.466 345.127 134.635C344.296 133.804 343.78 132.915 343.579 131.969L344.998 131.367V146.46H338.849ZM350.545 132.141C351.663 132.141 352.652 131.869 353.512 131.324C354.372 130.779 355.046 130.02 355.533 129.045C356.021 128.042 356.264 126.895 356.264 125.605C356.264 124.315 356.021 123.183 355.533 122.208C355.046 121.233 354.372 120.474 353.512 119.929C352.681 119.384 351.692 119.112 350.545 119.112C349.399 119.112 348.395 119.384 347.535 119.929C346.675 120.445 346.002 121.205 345.514 122.208C345.027 123.183 344.783 124.315 344.783 125.605C344.783 126.895 345.027 128.042 345.514 129.045C346.002 130.02 346.675 130.779 347.535 131.324C348.395 131.869 349.399 132.141 350.545 132.141ZM377.394 137.43C375.072 137.43 372.994 136.928 371.159 135.925C369.353 134.893 367.92 133.488 366.859 131.711C365.827 129.934 365.311 127.898 365.311 125.605C365.311 123.312 365.827 121.291 366.859 119.542C367.92 117.765 369.353 116.36 371.159 115.328C372.994 114.296 375.072 113.78 377.394 113.78C379.688 113.78 381.737 114.296 383.543 115.328C385.378 116.36 386.811 117.765 387.843 119.542C388.875 121.291 389.391 123.312 389.391 125.605C389.391 127.898 388.875 129.934 387.843 131.711C386.811 133.488 385.378 134.893 383.543 135.925C381.737 136.928 379.688 137.43 377.394 137.43ZM377.394 132.098C378.512 132.098 379.516 131.826 380.404 131.281C381.293 130.708 381.981 129.934 382.468 128.959C382.984 127.956 383.242 126.838 383.242 125.605C383.242 124.344 382.984 123.226 382.468 122.251C381.981 121.248 381.293 120.474 380.404 119.929C379.516 119.356 378.512 119.069 377.394 119.069C376.248 119.069 375.23 119.356 374.341 119.929C373.453 120.502 372.75 121.276 372.234 122.251C371.718 123.226 371.475 124.344 371.503 125.605C371.475 126.838 371.718 127.956 372.234 128.959C372.75 129.934 373.453 130.708 374.341 131.281C375.23 131.826 376.248 132.098 377.394 132.098ZM396.178 137V108.491H402.284V137H396.178ZM391.921 119.714V114.253H406.928V119.714H391.921ZM421.491 137.43C419.026 137.43 416.876 136.928 415.041 135.925C413.206 134.922 411.773 133.546 410.741 131.797C409.709 130.048 409.193 128.042 409.193 125.777C409.193 124.028 409.48 122.423 410.053 120.961C410.626 119.499 411.429 118.238 412.461 117.177C413.493 116.088 414.711 115.256 416.116 114.683C417.549 114.081 419.097 113.78 420.76 113.78C422.308 113.78 423.741 114.067 425.06 114.64C426.379 115.185 427.511 115.973 428.457 117.005C429.432 118.008 430.177 119.198 430.693 120.574C431.209 121.95 431.438 123.455 431.381 125.089L431.338 126.981H413.063L412.074 123.24H426.307L425.619 124.014V123.068C425.562 122.294 425.304 121.592 424.845 120.961C424.415 120.33 423.856 119.843 423.168 119.499C422.48 119.155 421.706 118.983 420.846 118.983C419.585 118.983 418.51 119.227 417.621 119.714C416.761 120.201 416.102 120.918 415.643 121.864C415.184 122.81 414.955 123.957 414.955 125.304C414.955 126.68 415.242 127.87 415.815 128.873C416.417 129.876 417.248 130.665 418.309 131.238C419.398 131.783 420.674 132.055 422.136 132.055C423.139 132.055 424.057 131.897 424.888 131.582C425.719 131.267 426.608 130.722 427.554 129.948L430.478 134.033C429.647 134.778 428.729 135.409 427.726 135.925C426.723 136.412 425.691 136.785 424.63 137.043C423.569 137.301 422.523 137.43 421.491 137.43ZM435.893 137V114.253H441.741L441.913 118.897L440.709 119.413C441.025 118.381 441.584 117.449 442.386 116.618C443.218 115.758 444.207 115.07 445.353 114.554C446.5 114.038 447.704 113.78 448.965 113.78C450.685 113.78 452.119 114.124 453.265 114.812C454.441 115.5 455.315 116.546 455.888 117.951C456.49 119.327 456.791 121.033 456.791 123.068V137H450.685V123.541C450.685 122.509 450.542 121.649 450.255 120.961C449.969 120.273 449.524 119.771 448.922 119.456C448.349 119.112 447.632 118.969 446.772 119.026C446.084 119.026 445.439 119.141 444.837 119.37C444.264 119.571 443.762 119.872 443.332 120.273C442.931 120.674 442.601 121.133 442.343 121.649C442.114 122.165 441.999 122.724 441.999 123.326V137H438.989C438.33 137 437.742 137 437.226 137C436.71 137 436.266 137 435.893 137ZM464.835 137V108.491H470.941V137H464.835ZM460.578 119.714V114.253H475.585V119.714H460.578ZM480.081 137V114.253H486.187V137H480.081ZM483.091 109.566C481.916 109.566 480.999 109.279 480.339 108.706C479.68 108.133 479.35 107.316 479.35 106.255C479.35 105.28 479.68 104.492 480.339 103.89C481.027 103.259 481.945 102.944 483.091 102.944C484.267 102.944 485.184 103.245 485.843 103.847C486.503 104.42 486.832 105.223 486.832 106.255C486.832 107.258 486.488 108.061 485.8 108.663C485.141 109.265 484.238 109.566 483.091 109.566ZM501.223 137.43C499.331 137.43 497.625 136.914 496.106 135.882C494.586 134.85 493.382 133.445 492.494 131.668C491.605 129.891 491.161 127.855 491.161 125.562C491.161 123.269 491.605 121.248 492.494 119.499C493.411 117.722 494.644 116.331 496.192 115.328C497.74 114.296 499.503 113.78 501.481 113.78C502.599 113.78 503.616 113.952 504.534 114.296C505.48 114.611 506.297 115.056 506.985 115.629C507.701 116.202 508.303 116.862 508.791 117.607C509.278 118.352 509.622 119.155 509.823 120.015L508.533 119.8V114.253H514.596V137H508.447V131.539L509.823 131.41C509.593 132.213 509.221 132.972 508.705 133.689C508.189 134.406 507.544 135.051 506.77 135.624C506.024 136.169 505.179 136.613 504.233 136.957C503.287 137.272 502.283 137.43 501.223 137.43ZM502.9 132.141C504.046 132.141 505.05 131.869 505.91 131.324C506.77 130.779 507.429 130.02 507.888 129.045C508.375 128.042 508.619 126.881 508.619 125.562C508.619 124.272 508.375 123.14 507.888 122.165C507.429 121.19 506.77 120.431 505.91 119.886C505.05 119.313 504.046 119.026 502.9 119.026C501.782 119.026 500.793 119.313 499.933 119.886C499.101 120.431 498.442 121.19 497.955 122.165C497.467 123.14 497.224 124.272 497.224 125.562C497.224 126.881 497.467 128.042 497.955 129.045C498.442 130.02 499.101 130.779 499.933 131.324C500.793 131.869 501.782 132.141 502.9 132.141ZM520.761 137V105.18H526.867V137H520.761ZM535.342 137.473C534.224 137.473 533.364 137.158 532.762 136.527C532.16 135.896 531.859 134.993 531.859 133.818C531.859 132.757 532.175 131.897 532.805 131.238C533.465 130.55 534.31 130.206 535.342 130.206C536.432 130.206 537.277 130.521 537.879 131.152C538.481 131.783 538.782 132.671 538.782 133.818C538.782 134.907 538.467 135.796 537.836 136.484C537.206 137.143 536.374 137.473 535.342 137.473Z" fill="white"/>
</svg>
