<svg width="212" height="104" viewBox="0 0 212 104" fill="none" xmlns="http://www.w3.org/2000/svg">
<path d="M41.002 83.83C36.354 83.83 32.0103 83.1383 27.971 81.755C23.987 80.3163 20.501 78.269 17.513 75.613C14.525 72.9017 12.1733 69.6923 10.458 65.985C8.798 62.2777 7.968 58.2107 7.968 53.784C7.968 49.468 8.82567 45.5117 10.541 41.915C12.2563 38.263 14.608 35.0813 17.596 32.37C20.6393 29.6587 24.153 27.5837 28.137 26.145C32.1763 24.7063 36.52 23.987 41.168 23.987C44.5433 23.987 47.808 24.402 50.962 25.232C54.116 26.062 56.9933 27.1687 59.594 28.552C62.25 29.9353 64.491 31.5123 66.317 33.283L58.93 42.828C57.3253 41.4447 55.61 40.2273 53.784 39.176C52.0133 38.0693 50.0213 37.2117 47.808 36.603C45.65 35.939 43.243 35.607 40.587 35.607C38.0417 35.607 35.5793 36.022 33.2 36.852C30.876 37.682 28.7733 38.8993 26.892 40.504C25.0107 42.0533 23.489 43.9623 22.327 46.231C21.2203 48.4997 20.667 51.045 20.667 53.867C20.667 56.7997 21.248 59.428 22.41 61.752C23.572 64.0207 25.149 65.9573 27.141 67.562C29.133 69.1113 31.4017 70.301 33.947 71.131C36.5477 71.9057 39.2867 72.293 42.164 72.293C44.82 72.293 47.227 71.9333 49.385 71.214C51.5983 70.4393 53.5903 69.5263 55.361 68.475C57.1317 67.3683 58.681 66.234 60.009 65.072L65.985 74.866C64.491 76.2493 62.4437 77.6327 59.843 79.016C57.2977 80.3993 54.3927 81.5613 51.128 82.502C47.8633 83.3873 44.488 83.83 41.002 83.83ZM85.2274 83V24.9H97.6774V71.795H131.375V83H85.2274ZM146.388 83V71.546H164.565L161.494 75.032C159.225 72.9293 157.067 70.5777 155.02 67.977C152.973 65.321 151.285 62.4713 149.957 59.428C148.629 56.3847 147.965 53.203 147.965 49.883C147.965 46.1203 148.74 42.662 150.289 39.508C151.838 36.2987 154.024 33.532 156.846 31.208C159.668 28.8287 162.96 27.0027 166.723 25.73C170.486 24.402 174.553 23.738 178.924 23.738C183.351 23.738 187.418 24.3743 191.125 25.647C194.888 26.9197 198.152 28.7457 200.919 31.125C203.741 33.449 205.927 36.2157 207.476 39.425C209.081 42.6343 209.883 46.148 209.883 49.966C209.883 53.2307 209.219 56.4123 207.891 59.511C206.618 62.5543 204.958 65.3763 202.911 67.977C200.864 70.5777 198.706 72.9017 196.437 74.949L193.615 71.546H211.46V83H185.398V72.874C186.449 71.712 187.418 70.633 188.303 69.637C189.244 68.641 190.074 67.6727 190.793 66.732C191.568 65.7913 192.232 64.8507 192.785 63.91C193.836 62.5267 194.666 61.171 195.275 59.843C195.939 58.515 196.409 57.1317 196.686 55.693C197.018 54.199 197.184 52.622 197.184 50.962C197.184 48.7487 196.714 46.7567 195.773 44.986C194.888 43.2153 193.615 41.666 191.955 40.338C190.295 38.9547 188.358 37.9033 186.145 37.184C183.987 36.4093 181.58 36.022 178.924 36.022C176.379 36.022 173.972 36.4093 171.703 37.184C169.49 37.9033 167.553 38.9547 165.893 40.338C164.288 41.666 163.016 43.243 162.075 45.069C161.19 46.8397 160.747 48.804 160.747 50.962C160.747 52.788 160.913 54.4757 161.245 56.025C161.632 57.5743 162.186 59.096 162.905 60.59C163.68 62.0287 164.593 63.4673 165.644 64.906C166.142 65.7913 166.668 66.5937 167.221 67.313C167.774 68.0323 168.328 68.6963 168.881 69.305C169.49 69.9137 170.098 70.5223 170.707 71.131C171.316 71.7397 171.869 72.3207 172.367 72.874V83H146.388Z" fill="#FF4D4C"/>
</svg>
