<svg width="600" height="300" viewBox="0 0 600 300" fill="none" xmlns="http://www.w3.org/2000/svg">
<g clip-path="url(#clip0_9_24)">
<rect width="600" height="300" fill="#FF4D4C"/>
<mask id="mask0_9_24" style="mask-type:alpha" maskUnits="userSpaceOnUse" x="0" y="0" width="600" height="300">
<rect width="600" height="300" fill="#D9D9D9"/>
</mask>
<g mask="url(#mask0_9_24)">
<rect x="143.371" y="-125" width="182.069" height="535.089" transform="rotate(18.4532 143.371 -125)" fill="#A23332"/>
<rect x="452.45" y="-111.37" width="182.069" height="535.089" transform="rotate(18.4532 452.45 -111.37)" fill="#A23332"/>
</g>
<g filter="url(#filter0_d_9_24)">
<path fill-rule="evenodd" clip-rule="evenodd" d="M381.391 109.442C422.465 109.442 455.759 142.922 455.759 184.221C455.759 225.52 422.465 259 381.391 259H218.368C177.294 259 144 225.52 144 184.221C144 142.922 177.294 109.442 218.368 109.442H225.772C228.973 71.1085 260.931 41 299.879 41C338.828 41 370.786 71.1085 373.987 109.442H381.391Z" fill="white"/>
<path d="M350.886 216.86C350.886 221.123 347.484 224.579 343.287 224.579H316.289C312.092 224.579 308.69 221.123 308.69 216.86V200.198C308.69 197.214 310.383 194.498 313.038 193.221C323.367 188.255 330.042 177.55 330.042 165.95C330.042 149.324 316.725 135.797 300.356 135.797C283.987 135.797 270.671 149.324 270.671 165.95C270.671 177.551 277.345 188.255 287.675 193.221C290.33 194.498 292.023 197.214 292.023 200.198V216.86C292.023 221.123 288.621 224.579 284.424 224.579H257.425C253.228 224.579 249.826 221.123 249.826 216.86C249.826 212.597 253.228 209.142 257.425 209.142H276.825V204.779C271.138 201.219 266.288 196.407 262.632 190.659C257.949 183.295 255.473 174.751 255.473 165.95C255.473 140.811 275.607 120.36 300.356 120.36C325.105 120.36 345.24 140.811 345.24 165.95C345.24 174.751 342.764 183.295 338.081 190.659C334.425 196.407 329.575 201.219 323.888 204.779V209.142H343.287C347.484 209.142 350.886 212.597 350.886 216.86Z" fill="#FF4D4C"/>
</g>
</g>
<defs>
<filter id="filter0_d_9_24" x="94" y="-9" width="411.759" height="318" filterUnits="userSpaceOnUse" color-interpolation-filters="sRGB">
<feFlood flood-opacity="0" result="BackgroundImageFix"/>
<feColorMatrix in="SourceAlpha" type="matrix" values="0 0 0 0 0 0 0 0 0 0 0 0 0 0 0 0 0 0 127 0" result="hardAlpha"/>
<feOffset/>
<feGaussianBlur stdDeviation="25"/>
<feComposite in2="hardAlpha" operator="out"/>
<feColorMatrix type="matrix" values="0 0 0 0 0 0 0 0 0 0 0 0 0 0 0 0 0 0 1 0"/>
<feBlend mode="normal" in2="BackgroundImageFix" result="effect1_dropShadow_9_24"/>
<feBlend mode="normal" in="SourceGraphic" in2="effect1_dropShadow_9_24" result="shape"/>
</filter>
<clipPath id="clip0_9_24">
<rect width="600" height="300" fill="white"/>
</clipPath>
</defs>
</svg>
