<svg width="226" height="226" viewBox="0 0 226 226" fill="none" xmlns="http://www.w3.org/2000/svg">
<g clip-path="url(#clip0_1_2)">
<path d="M0 112.677C0 50.4474 50.4474 0 112.677 0C174.907 0 225.355 50.4474 225.355 112.677C225.355 174.907 174.907 225.355 112.677 225.355C50.4474 225.355 0 174.907 0 112.677Z" fill="#FF4D4C"/>
<path fill-rule="evenodd" clip-rule="evenodd" d="M158.535 83.7612C181.776 83.7612 200.614 102.601 200.614 125.84C200.614 149.08 181.776 167.919 158.535 167.919H66.2941C43.0532 167.919 24.2152 149.08 24.2152 125.84C24.2152 102.601 43.0532 83.7612 66.2941 83.7612H70.483C72.2945 62.1907 90.3765 45.2484 112.414 45.2484C134.452 45.2484 152.534 62.1907 154.346 83.7612H158.535Z" fill="white"/>
<path d="M141.493 144.219C141.493 146.612 139.553 148.552 137.159 148.552H121.763C119.37 148.552 117.43 146.612 117.43 144.219V134.864C117.43 133.189 118.395 131.664 119.909 130.947C125.8 128.159 129.606 122.15 129.606 115.637C129.606 106.303 122.012 98.7087 112.677 98.7087C103.343 98.7087 95.7489 106.303 95.7489 115.637C95.7489 122.15 99.5551 128.159 105.446 130.947C106.96 131.664 107.925 133.189 107.925 134.864V144.219C107.925 146.612 105.985 148.552 103.592 148.552H88.1954C85.802 148.552 83.862 146.612 83.862 144.219C83.862 141.825 85.802 139.885 88.1954 139.885H99.2585V137.436C96.0154 135.438 93.2494 132.736 91.1648 129.509C88.4939 125.375 87.0821 120.578 87.0821 115.637C87.0821 101.524 98.564 90.042 112.677 90.042C126.791 90.042 138.273 101.524 138.273 115.637C138.273 120.578 136.861 125.375 134.19 129.509C132.106 132.736 129.34 135.438 126.097 137.436V139.885H137.159C139.553 139.885 141.493 141.825 141.493 144.219Z" fill="#FF4D4C"/>
</g>
<defs>
<clipPath id="clip0_1_2">
<rect width="225.355" height="225.355" fill="white"/>
</clipPath>
</defs>
</svg>
