<svg width="177" height="123" viewBox="0 0 177 123" fill="none" xmlns="http://www.w3.org/2000/svg">
<g clip-path="url(#clip0_1_53)">
<path fill-rule="evenodd" clip-rule="evenodd" d="M134.32 38.5129C157.561 38.5129 176.399 57.3523 176.399 80.5918C176.399 103.831 157.561 122.671 134.32 122.671H42.0789C18.838 122.671 0 103.831 0 80.5918C0 57.3523 18.838 38.5129 42.0789 38.5129H46.2678C48.0793 16.9423 66.1613 0 88.1993 0C110.237 0 128.319 16.9423 130.131 38.5129H134.32Z" fill="white"/>
<path d="M117.278 98.9703C117.278 101.364 115.338 103.304 112.944 103.304H97.5482C95.1549 103.304 93.2148 101.364 93.2148 98.9703V89.6158C93.2148 87.9408 94.1803 86.4159 95.6942 85.6991C101.585 82.911 105.391 76.9013 105.391 70.3889C105.391 61.0546 97.7967 53.4604 88.4622 53.4604C79.1277 53.4604 71.5337 61.0546 71.5337 70.3889C71.5337 76.9015 75.3399 82.911 81.2305 85.6991C82.7445 86.4156 83.71 87.9406 83.71 89.6158V98.9703C83.71 101.364 81.77 103.304 79.3766 103.304H63.9802C61.5869 103.304 59.6468 101.364 59.6468 98.9703C59.6468 96.577 61.5869 94.6369 63.9802 94.6369H75.0433V92.1875C71.8002 90.1894 69.0342 87.4877 66.9496 84.2607C64.2787 80.1262 62.8669 75.3296 62.8669 70.3889C62.8669 56.2755 74.3489 44.7936 88.4622 44.7936C102.576 44.7936 114.058 56.2755 114.058 70.3887C114.058 75.3294 112.646 80.1262 109.975 84.2605C107.891 87.4875 105.125 90.1894 101.882 92.1875V94.6369H112.944C115.338 94.6369 117.278 96.577 117.278 98.9703Z" fill="#FF4D4C"/>
</g>
<defs>
<clipPath id="clip0_1_53">
<rect width="176.399" height="122.671" fill="white"/>
</clipPath>
</defs>
</svg>
