<svg width="226" height="226" viewBox="0 0 226 226" fill="none" xmlns="http://www.w3.org/2000/svg">
<g clip-path="url(#clip0_1_13)">
<path d="M0 112.677C0 50.4474 50.4474 0 112.677 0C174.907 0 225.355 50.4474 225.355 112.677C225.355 174.907 174.907 225.355 112.677 225.355C50.4474 225.355 0 174.907 0 112.677Z" fill="#0FBD8C"/>
<path fill-rule="evenodd" clip-rule="evenodd" d="M158.535 83.7612C181.776 83.7612 200.614 102.601 200.614 125.84C200.614 149.08 181.776 167.919 158.535 167.919H66.2941C43.0532 167.919 24.2152 149.08 24.2152 125.84C24.2152 102.601 43.0532 83.7612 66.2941 83.7612H70.483C72.2945 62.1907 90.3765 45.2484 112.414 45.2484C134.452 45.2484 152.534 62.1907 154.346 83.7612H158.535Z" fill="white"/>
<path d="M111.635 150.581C107.153 150.581 103.003 149.723 99.185 148.008C95.367 146.237 92.1577 143.913 89.557 141.036L96.114 132.819C98.4933 135.088 100.956 136.831 103.501 138.048C106.102 139.265 108.702 139.874 111.303 139.874C113.738 139.874 115.896 139.487 117.777 138.712C119.658 137.882 121.097 136.748 122.093 135.309C123.144 133.815 123.67 132.072 123.67 130.08C123.67 128.199 123.144 126.539 122.093 125.1C121.042 123.661 119.603 122.527 117.777 121.697C115.951 120.867 113.904 120.452 111.635 120.452C109.532 120.452 107.651 120.646 105.991 121.033C104.331 121.42 102.837 121.891 101.509 122.444C100.181 122.942 98.9913 123.495 97.94 124.104L92.296 116.883L95.865 91.568H130.725V102.275H102.173L105.161 98.623L102.422 117.049L98.521 115.14C99.4617 114.365 100.762 113.646 102.422 112.982C104.082 112.318 105.936 111.765 107.983 111.322C110.03 110.879 112.05 110.658 114.042 110.658C117.915 110.658 121.457 111.488 124.666 113.148C127.875 114.753 130.448 117.021 132.385 119.954C134.322 122.887 135.29 126.317 135.29 130.246C135.29 134.064 134.239 137.522 132.136 140.621C130.033 143.664 127.184 146.099 123.587 147.925C120.046 149.696 116.062 150.581 111.635 150.581Z" fill="#0FBD8C"/>
</g>
<defs>
<clipPath id="clip0_1_13">
<rect width="225.355" height="225.355" fill="white"/>
</clipPath>
</defs>
</svg>
