<svg width="177" height="123" viewBox="0 0 177 123" fill="none" xmlns="http://www.w3.org/2000/svg">
<g clip-path="url(#clip0_1_19)">
<path fill-rule="evenodd" clip-rule="evenodd" d="M134.32 38.5129C157.561 38.5129 176.399 57.3523 176.399 80.5918C176.399 103.831 157.561 122.671 134.32 122.671H42.0789C18.838 122.671 0 103.831 0 80.5918C0 57.3523 18.838 38.5129 42.0789 38.5129H46.2678C48.0793 16.9423 66.1613 0 88.1993 0C110.237 0 128.319 16.9423 130.131 38.5129H134.32Z" fill="white"/>
<path d="M87.4198 105.333C82.9378 105.333 78.7878 104.475 74.9698 102.76C71.1518 100.989 67.9425 98.665 65.3418 95.7877L71.8988 87.5706C74.2782 89.8393 76.7405 91.5823 79.2858 92.7996C81.8865 94.017 84.4872 94.6256 87.0878 94.6256C89.5225 94.6256 91.6805 94.2383 93.5618 93.4636C95.4432 92.6336 96.8818 91.4993 97.8778 90.0606C98.9292 88.5666 99.4548 86.8236 99.4548 84.8316C99.4548 82.9503 98.9292 81.2903 97.8778 79.8516C96.8265 78.413 95.3878 77.2786 93.5618 76.4486C91.7358 75.6186 89.6885 75.2036 87.4198 75.2036C85.3172 75.2036 83.4358 75.3973 81.7758 75.7846C80.1158 76.172 78.6218 76.6423 77.2938 77.1956C75.9658 77.6936 74.7762 78.247 73.7248 78.8556L68.0808 71.6346L71.6498 46.3196H106.51V57.0266H77.9578L80.9458 53.3746L78.2068 71.8006L74.3058 69.8916C75.2465 69.117 76.5468 68.3976 78.2068 67.7336C79.8668 67.0696 81.7205 66.5163 83.7678 66.0736C85.8152 65.631 87.8348 65.4096 89.8268 65.4096C93.7002 65.4096 97.2415 66.2396 100.451 67.8996C103.66 69.5043 106.233 71.773 108.17 74.7056C110.106 77.6383 111.075 81.069 111.075 84.9976C111.075 88.8156 110.023 92.274 107.921 95.3727C105.818 98.416 102.968 100.851 99.3718 102.677C95.8305 104.447 91.8465 105.333 87.4198 105.333Z" fill="#0FBD8C"/>
</g>
<defs>
<clipPath id="clip0_1_19">
<rect width="176.399" height="122.671" fill="white"/>
</clipPath>
</defs>
</svg>
