<svg width="199" height="104" viewBox="0 0 199 104" fill="none" xmlns="http://www.w3.org/2000/svg">
<path d="M41.002 83.83C36.354 83.83 32.0103 83.1383 27.971 81.755C23.987 80.3163 20.501 78.269 17.513 75.613C14.525 72.9017 12.1733 69.6923 10.458 65.985C8.798 62.2777 7.968 58.2107 7.968 53.784C7.968 49.468 8.82567 45.5117 10.541 41.915C12.2563 38.263 14.608 35.0813 17.596 32.37C20.6393 29.6587 24.153 27.5837 28.137 26.145C32.1763 24.7063 36.52 23.987 41.168 23.987C44.5433 23.987 47.808 24.402 50.962 25.232C54.116 26.062 56.9933 27.1687 59.594 28.552C62.25 29.9353 64.491 31.5123 66.317 33.283L58.93 42.828C57.3253 41.4447 55.61 40.2273 53.784 39.176C52.0133 38.0693 50.0213 37.2117 47.808 36.603C45.65 35.939 43.243 35.607 40.587 35.607C38.0417 35.607 35.5793 36.022 33.2 36.852C30.876 37.682 28.7733 38.8993 26.892 40.504C25.0107 42.0533 23.489 43.9623 22.327 46.231C21.2203 48.4997 20.667 51.045 20.667 53.867C20.667 56.7997 21.248 59.428 22.41 61.752C23.572 64.0207 25.149 65.9573 27.141 67.562C29.133 69.1113 31.4017 70.301 33.947 71.131C36.5477 71.9057 39.2867 72.293 42.164 72.293C44.82 72.293 47.227 71.9333 49.385 71.214C51.5983 70.4393 53.5903 69.5263 55.361 68.475C57.1317 67.3683 58.681 66.234 60.009 65.072L65.985 74.866C64.491 76.2493 62.4437 77.6327 59.843 79.016C57.2977 80.3993 54.3927 81.5613 51.128 82.502C47.8633 83.3873 44.488 83.83 41.002 83.83ZM85.2274 83V24.9H97.6774V71.795H131.375V83H85.2274ZM167.968 83.581C163.486 83.581 159.336 82.7233 155.518 81.008C151.7 79.2373 148.491 76.9133 145.89 74.036L152.447 65.819C154.826 68.0877 157.289 69.8307 159.834 71.048C162.435 72.2653 165.035 72.874 167.636 72.874C170.071 72.874 172.229 72.4867 174.11 71.712C175.991 70.882 177.43 69.7477 178.426 68.309C179.477 66.815 180.003 65.072 180.003 63.08C180.003 61.1987 179.477 59.5387 178.426 58.1C177.375 56.6613 175.936 55.527 174.11 54.697C172.284 53.867 170.237 53.452 167.968 53.452C165.865 53.452 163.984 53.6457 162.324 54.033C160.664 54.4203 159.17 54.8907 157.842 55.444C156.514 55.942 155.324 56.4953 154.273 57.104L148.629 49.883L152.198 24.568H187.058V35.275H158.506L161.494 31.623L158.755 50.049L154.854 48.14C155.795 47.3653 157.095 46.646 158.755 45.982C160.415 45.318 162.269 44.7647 164.316 44.322C166.363 43.8793 168.383 43.658 170.375 43.658C174.248 43.658 177.79 44.488 180.999 46.148C184.208 47.7527 186.781 50.0213 188.718 52.954C190.655 55.8867 191.623 59.3173 191.623 63.246C191.623 67.064 190.572 70.5223 188.469 73.621C186.366 76.6643 183.517 79.099 179.92 80.925C176.379 82.6957 172.395 83.581 167.968 83.581Z" fill="#0FBD8C"/>
</svg>
