<svg width="575" height="155" viewBox="0 0 575 155" fill="none" xmlns="http://www.w3.org/2000/svg">
<rect width="575" height="155" rx="37" fill="#0FBD8C"/>
<path d="M111.976 137V106.9H118.426V137H111.976ZM114.943 125.046V119.499H130.509V125.046H114.943ZM114.943 112.705V106.9H132.315V112.705H114.943ZM145.372 137.43C143.48 137.43 141.774 136.914 140.255 135.882C138.735 134.85 137.531 133.445 136.643 131.668C135.754 129.891 135.31 127.855 135.31 125.562C135.31 123.269 135.754 121.248 136.643 119.499C137.56 117.722 138.793 116.331 140.341 115.328C141.889 114.296 143.652 113.78 145.63 113.78C146.748 113.78 147.765 113.952 148.683 114.296C149.629 114.611 150.446 115.056 151.134 115.629C151.85 116.202 152.452 116.862 152.94 117.607C153.427 118.352 153.771 119.155 153.972 120.015L152.682 119.8V114.253H158.745V137H152.596V131.539L153.972 131.41C153.742 132.213 153.37 132.972 152.854 133.689C152.338 134.406 151.693 135.051 150.919 135.624C150.173 136.169 149.328 136.613 148.382 136.957C147.436 137.272 146.432 137.43 145.372 137.43ZM147.049 132.141C148.195 132.141 149.199 131.869 150.059 131.324C150.919 130.779 151.578 130.02 152.037 129.045C152.524 128.042 152.768 126.881 152.768 125.562C152.768 124.272 152.524 123.14 152.037 122.165C151.578 121.19 150.919 120.431 150.059 119.886C149.199 119.313 148.195 119.026 147.049 119.026C145.931 119.026 144.942 119.313 144.082 119.886C143.25 120.431 142.591 121.19 142.104 122.165C141.616 123.14 141.373 124.272 141.373 125.562C141.373 126.881 141.616 128.042 142.104 129.045C142.591 130.02 143.25 130.779 144.082 131.324C144.942 131.869 145.931 132.141 147.049 132.141ZM172.52 137.43C170.399 137.43 168.507 137.086 166.844 136.398C165.21 135.681 163.892 134.707 162.888 133.474L166.672 130.206C167.561 131.152 168.55 131.84 169.639 132.27C170.729 132.671 171.818 132.872 172.907 132.872C173.337 132.872 173.724 132.829 174.068 132.743C174.441 132.628 174.756 132.485 175.014 132.313C175.272 132.112 175.459 131.883 175.573 131.625C175.717 131.338 175.788 131.037 175.788 130.722C175.788 130.091 175.53 129.59 175.014 129.217C174.728 129.074 174.283 128.902 173.681 128.701C173.079 128.472 172.305 128.228 171.359 127.97C169.897 127.597 168.65 127.167 167.618 126.68C166.615 126.164 165.812 125.591 165.21 124.96C164.694 124.358 164.293 123.713 164.006 123.025C163.748 122.308 163.619 121.52 163.619 120.66C163.619 119.628 163.849 118.696 164.307 117.865C164.766 117.005 165.397 116.274 166.199 115.672C167.031 115.07 167.977 114.611 169.037 114.296C170.098 113.952 171.216 113.78 172.391 113.78C173.567 113.78 174.713 113.923 175.831 114.21C176.949 114.497 177.981 114.912 178.927 115.457C179.902 115.973 180.748 116.589 181.464 117.306L178.196 120.918C177.68 120.431 177.093 119.986 176.433 119.585C175.803 119.184 175.143 118.868 174.455 118.639C173.767 118.41 173.151 118.295 172.606 118.295C172.119 118.295 171.675 118.338 171.273 118.424C170.901 118.51 170.585 118.639 170.327 118.811C170.069 118.983 169.869 119.212 169.725 119.499C169.611 119.757 169.553 120.044 169.553 120.359C169.553 120.674 169.625 120.975 169.768 121.262C169.94 121.549 170.17 121.792 170.456 121.993C170.772 122.165 171.23 122.366 171.832 122.595C172.463 122.824 173.309 123.082 174.369 123.369C175.745 123.742 176.906 124.157 177.852 124.616C178.827 125.075 179.601 125.605 180.174 126.207C180.662 126.723 181.02 127.311 181.249 127.97C181.479 128.629 181.593 129.36 181.593 130.163C181.593 131.568 181.192 132.829 180.389 133.947C179.615 135.036 178.54 135.896 177.164 136.527C175.788 137.129 174.24 137.43 172.52 137.43ZM188.14 137V108.491H194.246V137H188.14ZM183.883 119.714V114.253H198.89V119.714H183.883ZM213.452 137.43C210.987 137.43 208.837 136.928 207.002 135.925C205.168 134.922 203.734 133.546 202.702 131.797C201.67 130.048 201.154 128.042 201.154 125.777C201.154 124.028 201.441 122.423 202.014 120.961C202.588 119.499 203.39 118.238 204.422 117.177C205.454 116.088 206.673 115.256 208.077 114.683C209.511 114.081 211.059 113.78 212.721 113.78C214.269 113.78 215.703 114.067 217.021 114.64C218.34 115.185 219.472 115.973 220.418 117.005C221.393 118.008 222.138 119.198 222.654 120.574C223.17 121.95 223.4 123.455 223.342 125.089L223.299 126.981H205.024L204.035 123.24H218.268L217.58 124.014V123.068C217.523 122.294 217.265 121.592 216.806 120.961C216.376 120.33 215.817 119.843 215.129 119.499C214.441 119.155 213.667 118.983 212.807 118.983C211.546 118.983 210.471 119.227 209.582 119.714C208.722 120.201 208.063 120.918 207.604 121.864C207.146 122.81 206.916 123.957 206.916 125.304C206.916 126.68 207.203 127.87 207.776 128.873C208.378 129.876 209.21 130.665 210.27 131.238C211.36 131.783 212.635 132.055 214.097 132.055C215.101 132.055 216.018 131.897 216.849 131.582C217.681 131.267 218.569 130.722 219.515 129.948L222.439 134.033C221.608 134.778 220.691 135.409 219.687 135.925C218.684 136.412 217.652 136.785 216.591 137.043C215.531 137.301 214.484 137.43 213.452 137.43ZM227.855 137V114.253H233.746L233.961 121.563L232.929 120.058C233.273 118.883 233.832 117.822 234.606 116.876C235.38 115.901 236.283 115.142 237.315 114.597C238.375 114.052 239.479 113.78 240.626 113.78C241.113 113.78 241.586 113.823 242.045 113.909C242.503 113.995 242.89 114.095 243.206 114.21L241.572 120.918C241.228 120.746 240.812 120.603 240.325 120.488C239.837 120.345 239.336 120.273 238.82 120.273C238.132 120.273 237.487 120.402 236.885 120.66C236.311 120.889 235.81 121.233 235.38 121.692C234.95 122.122 234.606 122.638 234.348 123.24C234.118 123.842 234.004 124.501 234.004 125.218V137H227.855ZM262.088 137V108.491H268.194V137H262.088ZM257.831 119.714V114.253H272.838V119.714H257.831ZM276.818 137V105.18H282.838V118.897L281.634 119.413C281.949 118.381 282.508 117.449 283.311 116.618C284.142 115.758 285.131 115.07 286.278 114.554C287.424 114.038 288.628 113.78 289.89 113.78C291.61 113.78 293.043 114.124 294.19 114.812C295.365 115.5 296.239 116.546 296.813 117.951C297.415 119.327 297.716 121.033 297.716 123.068V137H291.61V123.541C291.61 122.509 291.466 121.649 291.18 120.961C290.893 120.273 290.449 119.771 289.847 119.456C289.273 119.112 288.557 118.969 287.697 119.026C287.009 119.026 286.364 119.141 285.762 119.37C285.188 119.571 284.687 119.872 284.257 120.273C283.855 120.674 283.526 121.133 283.268 121.649C283.038 122.165 282.924 122.724 282.924 123.326V137H279.914C279.254 137 278.667 137 278.151 137C277.635 137 277.19 137 276.818 137ZM312.081 137.43C310.189 137.43 308.483 136.914 306.964 135.882C305.444 134.85 304.24 133.445 303.352 131.668C302.463 129.891 302.019 127.855 302.019 125.562C302.019 123.269 302.463 121.248 303.352 119.499C304.269 117.722 305.502 116.331 307.05 115.328C308.598 114.296 310.361 113.78 312.339 113.78C313.457 113.78 314.474 113.952 315.392 114.296C316.338 114.611 317.155 115.056 317.843 115.629C318.559 116.202 319.161 116.862 319.649 117.607C320.136 118.352 320.48 119.155 320.681 120.015L319.391 119.8V114.253H325.454V137H319.305V131.539L320.681 131.41C320.451 132.213 320.079 132.972 319.563 133.689C319.047 134.406 318.402 135.051 317.628 135.624C316.882 136.169 316.037 136.613 315.091 136.957C314.145 137.272 313.141 137.43 312.081 137.43ZM313.758 132.141C314.904 132.141 315.908 131.869 316.768 131.324C317.628 130.779 318.287 130.02 318.746 129.045C319.233 128.042 319.477 126.881 319.477 125.562C319.477 124.272 319.233 123.14 318.746 122.165C318.287 121.19 317.628 120.431 316.768 119.886C315.908 119.313 314.904 119.026 313.758 119.026C312.64 119.026 311.651 119.313 310.791 119.886C309.959 120.431 309.3 121.19 308.813 122.165C308.325 123.14 308.082 124.272 308.082 125.562C308.082 126.881 308.325 128.042 308.813 129.045C309.3 130.02 309.959 130.779 310.791 131.324C311.651 131.869 312.64 132.141 313.758 132.141ZM331.575 137V114.253H337.423L337.595 118.897L336.391 119.413C336.707 118.381 337.266 117.449 338.068 116.618C338.9 115.758 339.889 115.07 341.035 114.554C342.182 114.038 343.386 113.78 344.647 113.78C346.367 113.78 347.801 114.124 348.947 114.812C350.123 115.5 350.997 116.546 351.57 117.951C352.172 119.327 352.473 121.033 352.473 123.068V137H346.367V123.541C346.367 122.509 346.224 121.649 345.937 120.961C345.651 120.273 345.206 119.771 344.604 119.456C344.031 119.112 343.314 118.969 342.454 119.026C341.766 119.026 341.121 119.141 340.519 119.37C339.946 119.571 339.444 119.872 339.014 120.273C338.613 120.674 338.283 121.133 338.025 121.649C337.796 122.165 337.681 122.724 337.681 123.326V137H334.671C334.012 137 333.424 137 332.908 137C332.392 137 331.948 137 331.575 137ZM382.303 137.43C379.838 137.43 377.688 136.928 375.853 135.925C374.018 134.922 372.585 133.546 371.553 131.797C370.521 130.048 370.005 128.042 370.005 125.777C370.005 124.028 370.292 122.423 370.865 120.961C371.438 119.499 372.241 118.238 373.273 117.177C374.305 116.088 375.523 115.256 376.928 114.683C378.361 114.081 379.909 113.78 381.572 113.78C383.12 113.78 384.553 114.067 385.872 114.64C387.191 115.185 388.323 115.973 389.269 117.005C390.244 118.008 390.989 119.198 391.505 120.574C392.021 121.95 392.25 123.455 392.193 125.089L392.15 126.981H373.875L372.886 123.24H387.119L386.431 124.014V123.068C386.374 122.294 386.116 121.592 385.657 120.961C385.227 120.33 384.668 119.843 383.98 119.499C383.292 119.155 382.518 118.983 381.658 118.983C380.397 118.983 379.322 119.227 378.433 119.714C377.573 120.201 376.914 120.918 376.455 121.864C375.996 122.81 375.767 123.957 375.767 125.304C375.767 126.68 376.054 127.87 376.627 128.873C377.229 129.876 378.06 130.665 379.121 131.238C380.21 131.783 381.486 132.055 382.948 132.055C383.951 132.055 384.869 131.897 385.7 131.582C386.531 131.267 387.42 130.722 388.366 129.948L391.29 134.033C390.459 134.778 389.541 135.409 388.538 135.925C387.535 136.412 386.503 136.785 385.442 137.043C384.381 137.301 383.335 137.43 382.303 137.43ZM403.423 137L393.877 114.253H400.585L406.648 131.238L405.229 131.496L411.593 114.253H418.129L408.11 137H403.423ZM432.022 137.43C429.556 137.43 427.406 136.928 425.572 135.925C423.737 134.922 422.304 133.546 421.272 131.797C420.24 130.048 419.724 128.042 419.724 125.777C419.724 124.028 420.01 122.423 420.584 120.961C421.157 119.499 421.96 118.238 422.992 117.177C424.024 116.088 425.242 115.256 426.647 114.683C428.08 114.081 429.628 113.78 431.291 113.78C432.839 113.78 434.272 114.067 435.591 114.64C436.909 115.185 438.042 115.973 438.988 117.005C439.962 118.008 440.708 119.198 441.224 120.574C441.74 121.95 441.969 123.455 441.912 125.089L441.869 126.981H423.594L422.605 123.24H436.838L436.15 124.014V123.068C436.092 122.294 435.834 121.592 435.376 120.961C434.946 120.33 434.387 119.843 433.699 119.499C433.011 119.155 432.237 118.983 431.377 118.983C430.115 118.983 429.04 119.227 428.152 119.714C427.292 120.201 426.632 120.918 426.174 121.864C425.715 122.81 425.486 123.957 425.486 125.304C425.486 126.68 425.772 127.87 426.346 128.873C426.948 129.876 427.779 130.665 428.84 131.238C429.929 131.783 431.205 132.055 432.667 132.055C433.67 132.055 434.587 131.897 435.419 131.582C436.25 131.267 437.139 130.722 438.085 129.948L441.009 134.033C440.177 134.778 439.26 135.409 438.257 135.925C437.253 136.412 436.221 136.785 435.161 137.043C434.1 137.301 433.054 137.43 432.022 137.43ZM446.424 137V114.253H452.315L452.53 121.563L451.498 120.058C451.842 118.883 452.401 117.822 453.175 116.876C453.949 115.901 454.852 115.142 455.884 114.597C456.945 114.052 458.048 113.78 459.195 113.78C459.682 113.78 460.155 113.823 460.614 113.909C461.073 113.995 461.46 114.095 461.775 114.21L460.141 120.918C459.797 120.746 459.381 120.603 458.894 120.488C458.407 120.345 457.905 120.273 457.389 120.273C456.701 120.273 456.056 120.402 455.454 120.66C454.881 120.889 454.379 121.233 453.949 121.692C453.519 122.122 453.175 122.638 452.917 123.24C452.688 123.842 452.573 124.501 452.573 125.218V137H446.424ZM462.645 137.473C461.527 137.473 460.667 137.158 460.065 136.527C459.463 135.896 459.162 134.993 459.162 133.818C459.162 132.757 459.477 131.897 460.108 131.238C460.767 130.55 461.613 130.206 462.645 130.206C463.734 130.206 464.58 130.521 465.182 131.152C465.784 131.783 466.085 132.671 466.085 133.818C466.085 134.907 465.769 135.796 465.139 136.484C464.508 137.143 463.677 137.473 462.645 137.473Z" fill="white"/>
<path d="M75.1815 83.83C70.9208 83.83 66.9921 83.1107 63.3955 81.672C59.8541 80.178 56.7555 78.103 54.0995 75.447C51.4988 72.7357 49.4791 69.554 48.0405 65.902C46.6018 62.1947 45.8825 58.1553 45.8825 53.784C45.8825 49.5233 46.6295 45.5947 48.1235 41.998C49.6175 38.346 51.7201 35.192 54.4315 32.536C57.1428 29.8247 60.3245 27.722 63.9765 26.228C67.6285 24.734 71.5848 23.987 75.8455 23.987C78.6121 23.987 81.3235 24.3743 83.9795 25.149C86.6908 25.8683 89.1531 26.9473 91.3665 28.386C93.6351 29.8247 95.5718 31.54 97.1765 33.532L89.3745 42.164C88.0465 40.836 86.6631 39.7017 85.2245 38.761C83.8411 37.765 82.3471 37.018 80.7425 36.52C79.1931 35.9667 77.5331 35.69 75.7625 35.69C73.3831 35.69 71.1421 36.1327 69.0395 37.018C66.9921 37.9033 65.1938 39.1483 63.6445 40.753C62.0951 42.3023 60.8501 44.2113 59.9095 46.48C59.0241 48.6933 58.5815 51.1557 58.5815 53.867C58.5815 56.6337 59.0241 59.1513 59.9095 61.42C60.7948 63.6333 62.0398 65.5423 63.6445 67.147C65.2491 68.6963 67.1581 69.9137 69.3715 70.799C71.6401 71.629 74.1301 72.044 76.8415 72.044C78.6121 72.044 80.3275 71.795 81.9875 71.297C83.6475 70.799 85.1691 70.1073 86.5525 69.222C87.9911 68.3367 89.2638 67.313 90.3705 66.151L96.4295 75.862C95.1015 77.356 93.3031 78.7117 91.0345 79.929C88.8211 81.1463 86.3311 82.1147 83.5645 82.834C80.7978 83.498 78.0035 83.83 75.1815 83.83ZM105.348 83V21.58H117.134V83H105.348ZM148.703 83.83C144.221 83.83 140.209 82.8617 136.668 80.925C133.182 78.933 130.415 76.2217 128.368 72.791C126.376 69.3603 125.38 65.4317 125.38 61.005C125.38 56.5783 126.376 52.6773 128.368 49.302C130.415 45.8713 133.182 43.16 136.668 41.168C140.209 39.176 144.221 38.18 148.703 38.18C153.129 38.18 157.086 39.176 160.572 41.168C164.113 43.16 166.88 45.8713 168.872 49.302C170.864 52.6773 171.86 56.5783 171.86 61.005C171.86 65.4317 170.864 69.3603 168.872 72.791C166.88 76.2217 164.113 78.933 160.572 80.925C157.086 82.8617 153.129 83.83 148.703 83.83ZM148.703 73.538C150.861 73.538 152.797 73.0123 154.513 71.961C156.228 70.8543 157.556 69.3603 158.497 67.479C159.493 65.5423 159.991 63.3843 159.991 61.005C159.991 58.5703 159.493 56.4123 158.497 54.531C157.556 52.5943 156.228 51.1003 154.513 50.049C152.797 48.9423 150.861 48.389 148.703 48.389C146.489 48.389 144.525 48.9423 142.81 50.049C141.094 51.1557 139.739 52.6497 138.743 54.531C137.747 56.4123 137.276 58.5703 137.332 61.005C137.276 63.3843 137.747 65.5423 138.743 67.479C139.739 69.3603 141.094 70.8543 142.81 71.961C144.525 73.0123 146.489 73.538 148.703 73.538ZM195.833 83.83C192.624 83.83 189.857 83.1383 187.533 81.755C185.264 80.3163 183.494 78.2967 182.221 75.696C181.004 73.04 180.395 69.8583 180.395 66.151V39.093H192.181V64.242C192.181 66.234 192.513 67.977 193.177 69.471C193.841 70.9097 194.782 72.0163 195.999 72.791C197.216 73.5657 198.71 73.953 200.481 73.953C201.754 73.953 202.943 73.7593 204.05 73.372C205.157 72.9293 206.097 72.3207 206.872 71.546C207.647 70.7713 208.255 69.8583 208.698 68.807C209.141 67.7557 209.362 66.6213 209.362 65.404V39.093H221.148V83H209.943L209.528 73.953L211.686 72.957C211.022 75.0043 209.915 76.858 208.366 78.518C206.817 80.178 204.963 81.4783 202.805 82.419C200.647 83.3597 198.323 83.83 195.833 83.83ZM250.188 83.83C246.37 83.83 242.94 82.8617 239.896 80.925C236.853 78.933 234.446 76.2493 232.675 72.874C230.96 69.4433 230.102 65.487 230.102 61.005C230.102 56.6337 230.96 52.7327 232.675 49.302C234.446 45.8713 236.825 43.16 239.813 41.168C242.857 39.176 246.315 38.18 250.188 38.18C252.236 38.18 254.2 38.512 256.081 39.176C258.018 39.7847 259.733 40.6423 261.227 41.749C262.777 42.8557 264.022 44.1007 264.962 45.484C265.903 46.812 266.429 48.223 266.539 49.717L263.551 50.215V21.58H275.337V83H264.215L263.717 72.874L266.041 73.123C265.931 74.5063 265.433 75.8343 264.547 77.107C263.662 78.3797 262.472 79.5417 260.978 80.593C259.54 81.589 257.88 82.3913 255.998 83C254.172 83.5533 252.236 83.83 250.188 83.83ZM252.844 74.036C255.058 74.036 256.994 73.4827 258.654 72.376C260.314 71.2693 261.615 69.7477 262.555 67.811C263.496 65.8743 263.966 63.6057 263.966 61.005C263.966 58.4597 263.496 56.2187 262.555 54.282C261.615 52.29 260.314 50.7683 258.654 49.717C256.994 48.6103 255.058 48.057 252.844 48.057C250.631 48.057 248.694 48.6103 247.034 49.717C245.43 50.7683 244.157 52.29 243.216 54.282C242.331 56.2187 241.888 58.4597 241.888 61.005C241.888 63.6057 242.331 65.8743 243.216 67.811C244.157 69.7477 245.43 71.2693 247.034 72.376C248.694 73.4827 250.631 74.036 252.844 74.036ZM288.488 83V24.9H300.938V71.795H327.249V83H288.488ZM338.159 83V39.093H349.945V83H338.159ZM343.969 30.046C341.7 30.046 339.929 29.4927 338.657 28.386C337.384 27.2793 336.748 25.7023 336.748 23.655C336.748 21.7737 337.384 20.252 338.657 19.09C339.985 17.8727 341.755 17.264 343.969 17.264C346.237 17.264 348.008 17.845 349.281 19.007C350.553 20.1137 351.19 21.663 351.19 23.655C351.19 25.5917 350.526 27.141 349.198 28.303C347.925 29.465 346.182 30.046 343.969 30.046ZM362.533 83V39.093H373.821L374.153 48.057L371.829 49.053C372.437 47.061 373.516 45.2627 375.066 43.658C376.67 41.998 378.579 40.67 380.793 39.674C383.006 38.678 385.33 38.18 387.765 38.18C391.085 38.18 393.851 38.844 396.065 40.172C398.333 41.5 400.021 43.5197 401.128 46.231C402.29 48.887 402.871 52.1793 402.871 56.108V83H391.085V57.021C391.085 55.029 390.808 53.369 390.255 52.041C389.701 50.713 388.844 49.7447 387.682 49.136C386.575 48.472 385.192 48.1953 383.532 48.306C382.204 48.306 380.959 48.5273 379.797 48.97C378.69 49.3573 377.722 49.9383 376.892 50.713C376.117 51.4877 375.481 52.373 374.983 53.369C374.54 54.365 374.319 55.444 374.319 56.606V83H368.509C367.236 83 366.102 83 365.106 83C364.11 83 363.252 83 362.533 83ZM425.369 69.803L421.883 60.092L442.633 39.093H458.154L425.369 69.803ZM414.164 83V21.58H425.95V83H414.164ZM443.878 83L428.108 63.163L436.408 56.523L458.071 83H443.878ZM506.881 83.581C502.675 83.581 498.857 82.7233 495.427 81.008C492.051 79.2373 489.229 76.692 486.961 73.372L493.684 65.902C496.063 68.558 498.221 70.384 500.158 71.38C502.094 72.3207 504.225 72.791 506.549 72.791C508.485 72.791 510.228 72.376 511.778 71.546C513.327 70.716 514.544 69.5817 515.43 68.143C516.315 66.7043 516.758 65.0997 516.758 63.329C516.758 61.503 516.315 59.8707 515.43 58.432C514.544 56.9933 513.355 55.859 511.861 55.029C510.422 54.1437 508.762 53.701 506.881 53.701C505.663 53.701 504.529 53.8117 503.478 54.033C502.426 54.199 501.264 54.5587 499.992 55.112C498.719 55.61 497.17 56.357 495.344 57.353L489.7 49.883L493.269 24.568H525.971V35.275H499.577L502.648 31.623L499.909 50.049L495.925 48.14C496.755 47.3653 497.889 46.646 499.328 45.982C500.822 45.318 502.426 44.7647 504.142 44.322C505.912 43.8793 507.628 43.658 509.288 43.658C512.94 43.658 516.177 44.488 518.999 46.148C521.876 47.808 524.145 50.132 525.805 53.12C527.52 56.0527 528.378 59.428 528.378 63.246C528.378 67.064 527.437 70.5223 525.556 73.621C523.674 76.6643 521.101 79.099 517.837 80.925C514.572 82.6957 510.92 83.581 506.881 83.581Z" fill="white"/>
</svg>
